<svg xmlns="http://www.w3.org/2000/svg" viewBox="0 0 64 64">
  <defs>
    <linearGradient id="bg" x1="0" y1="0" x2="1" y2="1">
      <stop offset="0" stop-color="#ec4899"/>
      <stop offset="1" stop-color="#2f4fd1"/>
    </linearGradient>
    <clipPath id="c"><circle cx="32" cy="32" r="32"/></clipPath>
  </defs>
  <g clip-path="url(#c)">
    <rect width="64" height="64" fill="url(#bg)"/>
    <!-- cabelo (atrás) -->
    <path d="M17 30c0-11 7-18 15-18s15 7 15 18v16c0 3-3 5-6 5H23c-3 0-6-2-6-5z" fill="#2a1a14"/>
    <!-- ombros / blazer -->
    <path d="M8 66c1-11 10-17 24-17s23 6 24 17z" fill="#131b3f"/>
    <path d="M26 49l6 8 6-8" fill="#fff"/>
    <!-- pescoço -->
    <rect x="28" y="38" width="8" height="12" rx="3" fill="#d9a07c"/>
    <!-- rosto -->
    <ellipse cx="32" cy="30" rx="10" ry="12" fill="#eab48f"/>
    <!-- franja -->
    <path d="M21.5 28c1-8 5.5-12.5 11.5-12.5 5 0 9 3.5 10 9-5-.5-10-3-12.5-6.5-1.5 4-5 8-9 10z" fill="#2a1a14"/>
    <!-- olhos e sorriso -->
    <circle cx="28" cy="31" r="1.3" fill="#2a1a14"/>
    <circle cx="36" cy="31" r="1.3" fill="#2a1a14"/>
    <path d="M28.5 35.5c2 2 5 2 7 0" stroke="#a3534a" stroke-width="1.4" fill="none" stroke-linecap="round"/>
  </g>
</svg>
